<svg xmlns:xlink="http://www.w3.org/1999/xlink" xmlns="http://www.w3.org/2000/svg" width="20" height="20" viewBox="0 0 20 20" fill="none">
<path d="M10 1.4585C10.2592 1.4585 10.4915 1.6185 10.5839 1.86069L12.5489 7.01045L17.9472 7.27444C18.2015 7.28688 18.4228 7.45235 18.5067 7.69275C18.5907 7.93316 18.5203 8.20043 18.3289 8.36841L14.2207 11.9747L15.7306 17.759C15.7965 18.0114 15.6986 18.2783 15.4851 18.4282C15.2715 18.5782 14.9873 18.5798 14.7722 18.4321L10 15.1564L5.22779 18.4321C5.01266 18.5798 4.72841 18.5782 4.51487 18.4282C4.30133 18.2783 4.20344 18.0114 4.26936 17.759L5.77931 11.9747L1.671 8.36841C1.47964 8.20043 1.40931 7.93316 1.49321 7.69275C1.57711 7.45235 1.79846 7.28688 2.05278 7.27444L7.45106 7.01045L9.416 1.86069C9.50841 1.6185 9.74075 1.4585 10 1.4585Z" fill="#090909"/>
</svg>