<svg xmlns:xlink="http://www.w3.org/1999/xlink" xmlns="http://www.w3.org/2000/svg" width="70" height="70" viewBox="0 0 70 70" fill="none">
<circle cx="35" cy="35" r="35" fill="white"/>
<path fill-rule="evenodd" clip-rule="evenodd" d="M49.6832 34.3835C49.3433 34.4409 49.1138 34.7632 49.1711 35.1038C49.3066 35.9045 49.375 36.7102 49.375 37.5C49.375 41.9053 47.4115 45.8817 44.2479 48.5293C43.6954 44.9419 41.1484 42.0646 37.7662 41.0349C39.1109 40.1379 40 38.6096 40 36.875C40 34.1174 37.757 31.875 35 31.875C32.243 31.875 30 34.1174 30 36.875C30 38.6096 30.8891 40.1379 32.2338 41.0349C28.8516 42.0646 26.3046 44.9419 25.7521 48.5293C22.5885 45.8817 20.625 41.9053 20.625 37.5C20.625 36.7102 20.6934 35.9045 20.8289 35.1038C20.8862 34.7632 20.6567 34.4409 20.3168 34.3835C19.9689 34.325 19.6539 34.5557 19.5959 34.8962C19.4495 35.7642 19.375 36.6406 19.375 37.5C19.375 45.1758 24.8572 51.6541 32.4103 52.9041C32.4445 52.9102 32.4792 52.9126 32.5128 52.9126C32.8131 52.9126 33.078 52.6953 33.1287 52.3901C33.1854 52.0496 32.9547 51.7273 32.6141 51.6711C30.508 51.3226 28.5813 50.5263 26.9128 49.3967C27.2143 45.1553 30.7001 41.875 35 41.875C39.2999 41.875 42.7857 45.1553 43.0872 49.3967C41.4187 50.5263 39.492 51.3226 37.3859 51.6711C37.0453 51.7273 36.8146 52.0496 36.8713 52.3901C36.922 52.6953 37.1869 52.9126 37.4872 52.9126C37.5208 52.9126 37.5555 52.9102 37.5897 52.9041C45.1428 51.6541 50.625 45.1758 50.625 37.5C50.625 36.6406 50.5505 35.7642 50.4041 34.8962C50.3461 34.5557 50.0275 34.3237 49.6832 34.3835ZM31.25 36.875C31.25 34.8071 32.9321 33.125 35 33.125C37.0679 33.125 38.75 34.8071 38.75 36.875C38.75 38.9429 37.0679 40.625 35 40.625C32.9321 40.625 31.25 38.9429 31.25 36.875Z" fill="#084D2B"/>
<path fill-rule="evenodd" clip-rule="evenodd" d="M41.8445 21.8481C41.7706 21.6211 41.5753 21.4563 41.3397 21.4221L37.3462 20.8423L35.5603 17.2229C35.3503 16.7981 34.6496 16.7981 34.4397 17.2229L32.6538 20.8423L28.6603 21.4221C28.4247 21.4563 28.2293 21.6211 28.1555 21.8481C28.0822 22.074 28.1433 22.323 28.3136 22.489L31.2036 25.3052L30.5212 29.2822C30.4809 29.5178 30.5774 29.7546 30.7696 29.8938C30.9631 30.0342 31.2176 30.0549 31.4282 29.9414L35 28.0627L38.5717 29.9414C38.6633 29.9902 38.7634 30.0134 38.8629 30.0134C38.9923 30.0134 39.1211 29.9731 39.2303 29.8938C39.4226 29.7546 39.519 29.5178 39.4787 29.2822L38.7964 25.3052L41.6864 22.489C41.8567 22.323 41.9177 22.074 41.8445 21.8481ZM37.6886 24.6387C37.5415 24.7827 37.4743 24.989 37.5091 25.1929L38.0328 28.2458L35.2911 26.8042C35.1996 26.7566 35.1001 26.7322 35 26.7322C34.8999 26.7322 34.8004 26.7566 34.7088 26.8042L31.9671 28.2458L32.4908 25.1929C32.5256 24.989 32.4585 24.7827 32.3114 24.6387L30.0934 22.478L33.1585 22.0325C33.3624 22.002 33.5382 21.875 33.6291 21.6907L35 18.9124L36.3708 21.6907C36.4618 21.875 36.6375 22.002 36.8414 22.0325L39.9066 22.478L37.6886 24.6387Z" fill="#084D2B"/>
<path fill-rule="evenodd" clip-rule="evenodd" d="M20.0439 31.9043C20.0036 32.1399 20.1001 32.3767 20.2923 32.5159C20.4864 32.6562 20.7416 32.6758 20.9509 32.5635L23.75 31.0913L26.549 32.5635C26.6406 32.6123 26.7407 32.6355 26.8402 32.6355C26.9696 32.6355 27.0984 32.5952 27.2076 32.5159C27.3999 32.3767 27.4963 32.1399 27.456 31.9043L26.9214 28.7878L29.1864 26.5808C29.3567 26.4148 29.4177 26.1658 29.3445 25.9399C29.2706 25.7129 29.0753 25.5481 28.8397 25.5139L25.7098 25.0598L24.3103 22.2229C24.1003 21.7981 23.3996 21.7981 23.1897 22.2229L21.7901 25.0598L18.6603 25.5139C18.4247 25.5481 18.2293 25.7129 18.1555 25.9399C18.0822 26.1658 18.1433 26.4148 18.3136 26.5808L20.5786 28.7878L20.0439 31.9043ZM20.0934 26.5698L22.2949 26.25C22.4988 26.2195 22.6745 26.0925 22.7655 25.9082L23.75 23.9124L24.7345 25.9082C24.8254 26.0925 25.0012 26.2195 25.2051 26.25L27.4066 26.5698L25.8136 28.1213C25.6665 28.2654 25.5993 28.4717 25.6341 28.6755L26.0101 30.8679L24.0411 29.8328C23.9496 29.7852 23.8501 29.7607 23.75 29.7607C23.6499 29.7607 23.5504 29.7852 23.4588 29.8328L21.4898 30.8679L21.8658 28.6755C21.9006 28.4717 21.8335 28.2654 21.6864 28.1213L20.0934 26.5698Z" fill="#084D2B"/>
<path fill-rule="evenodd" clip-rule="evenodd" d="M51.3397 25.5139L48.2098 25.0598L46.8103 22.2229C46.6003 21.7981 45.8996 21.7981 45.6897 22.2229L44.2901 25.0598L41.1603 25.5139C40.9247 25.5481 40.7293 25.7129 40.6555 25.9399C40.5822 26.1658 40.6433 26.4148 40.8136 26.5808L43.0786 28.7878L42.5439 31.9043C42.5036 32.1399 42.6001 32.3767 42.7923 32.5159C42.9858 32.6562 43.2403 32.6758 43.4509 32.5635L46.25 31.0913L49.049 32.5635C49.1406 32.6123 49.2407 32.6355 49.3402 32.6355C49.4696 32.6355 49.5984 32.5952 49.7076 32.5159C49.8999 32.3767 49.9963 32.1399 49.956 31.9043L49.4214 28.7878L51.6864 26.5808C51.8567 26.4148 51.9177 26.1658 51.8445 25.9399C51.7706 25.7129 51.5753 25.5481 51.3397 25.5139ZM48.3136 28.1213C48.1665 28.2654 48.0993 28.4717 48.1341 28.6755L48.5101 30.8679L46.5411 29.8328C46.4496 29.7852 46.3501 29.7607 46.25 29.7607C46.1499 29.7607 46.0504 29.7852 45.9588 29.8328L43.9898 30.8679L44.3658 28.6755C44.4006 28.4717 44.3335 28.2654 44.1864 28.1213L42.5934 26.5698L44.7949 26.25C44.9988 26.2195 45.1745 26.0925 45.2655 25.9082L46.25 23.9124L47.2345 25.9082C47.3254 26.0925 47.5012 26.2195 47.7051 26.25L49.9066 26.5698L48.3136 28.1213Z" fill="#084D2B"/>
<path d="M35 53.125C35.3452 53.125 35.625 52.8452 35.625 52.5C35.625 52.1548 35.3452 51.875 35 51.875C34.6548 51.875 34.375 52.1548 34.375 52.5C34.375 52.8452 34.6548 53.125 35 53.125Z" fill="#084D2B"/>
</svg>