<svg xmlns:xlink="http://www.w3.org/1999/xlink" xmlns="http://www.w3.org/2000/svg" width="60" height="60" viewBox="0 0 60 60" fill="none">
<circle cx="30" cy="30" r="29.5" stroke="#EAF3EF"/>
<path d="M30 12.9165C30.5183 12.9165 30.983 13.2365 31.1678 13.7209L35.0978 24.0204L45.8943 24.5484C46.403 24.5733 46.8457 24.9042 47.0135 25.385C47.1813 25.8658 47.0407 26.4004 46.6578 26.7363L38.4413 33.949L41.4612 45.5175C41.593 46.0223 41.3972 46.5562 40.9702 46.856C40.543 47.156 39.9747 47.1592 39.5443 46.8637L30 40.3123L20.4556 46.8637C20.0253 47.1592 19.4568 47.156 19.0298 46.856C18.6027 46.5562 18.4069 46.0223 18.5387 45.5175L21.5586 33.949L13.342 26.7363C12.9593 26.4004 12.8186 25.8658 12.9864 25.385C13.1542 24.9042 13.5969 24.5733 14.1056 24.5484L24.9021 24.0204L28.832 13.7209C29.0168 13.2365 29.4815 12.9165 30 12.9165Z" fill="#DAFF97"/>
</svg>