<svg width="281" height="90" viewBox="0 0 281 90" fill="none" xmlns="http://www.w3.org/2000/svg">
<path d="M48.4484 43.5764L47.6553 44.1585C49.2857 46.3665 50.1477 48.9889 50.1477 51.7401H50.6397H51.1317H60.7262L50.7254 48.4192C50.2988 46.6819 49.5304 45.0426 48.4484 43.5764Z" fill="#DAFF97"/>
<path d="M26.2817 59.9081L27.0748 59.3261C25.4444 57.1136 24.5824 54.4913 24.5824 51.74H24.0904H23.5984H14.0039L24.0047 55.0654C24.4313 56.7991 25.1997 58.4375 26.2817 59.9081Z" fill="#DAFF97"/>
<path d="M46.7489 42.3558L47.0986 42.006L53.8827 35.2219L44.464 39.9446C42.9333 39.0172 41.234 38.4007 39.4269 38.1286L39.2803 39.1037C41.9927 39.5091 44.4551 40.7554 46.4044 42.7002L46.7489 42.3558Z" fill="#DAFF97"/>
<path d="M27.981 61.1289L27.6313 61.4743L20.8472 68.2583L30.2659 63.5401C31.7966 64.4631 33.4959 65.0796 35.303 65.3516L35.4496 64.381C32.7372 63.9711 30.2748 62.7249 28.3255 60.78L27.981 61.1289Z" fill="#DAFF97"/>
<path d="M24.7241 49.8254C24.8619 48.9324 25.095 48.066 25.4051 47.2375L24.7709 46.1812C24.2834 47.2852 23.9389 48.4581 23.7534 49.6787L24.7241 49.8254Z" fill="#DAFF97"/>
<path d="M37.3652 38.9582V38.4663V37.9743V28.3833L34.0443 38.3797C33.2767 38.5696 32.526 38.8284 31.8062 39.1472L32.8625 39.7814C34.2863 39.247 35.8037 38.9582 37.3652 38.9582Z" fill="#DAFF97"/>
<path d="M50.0062 53.655C49.8684 54.5524 49.6352 55.4144 49.3252 56.2473L49.9594 57.2992C50.4469 56.1952 50.7914 55.0223 50.9768 53.8016L50.0062 53.655Z" fill="#DAFF97"/>
<path d="M37.3652 64.5231V65.0151V65.507V75.1025L40.6862 65.1016C41.4537 64.9117 42.2045 64.653 42.9243 64.3341L41.8679 63.7C40.4442 64.2387 38.9268 64.5231 37.3652 64.5231Z" fill="#DAFF97"/>
<path d="M39.4566 50.4594C40.0343 51.408 39.9221 52.6587 39.1033 53.4783C38.2846 54.298 37.033 54.4146 36.0844 53.8316L33.1777 56.7383L56.2937 70.6678L42.3633 47.5527L39.4566 50.4594Z" fill="#DAFF97"/>
<path d="M35.2736 53.0217C34.6959 52.0775 34.8081 50.8225 35.6268 50.0028C36.4456 49.1832 37.6971 49.071 38.6457 49.6495L41.5524 46.7428L18.4365 32.8125L32.366 55.9284L35.2736 53.0217Z" fill="#DAFF97"/>
<path d="M41.1259 14.565C40.9881 12.6069 39.3576 11.063 37.3651 11.063C35.3725 11.063 33.7421 12.6069 33.6043 14.565C14.7623 16.4586 0 32.4063 0 51.7402C0 72.3424 16.7637 89.1053 37.3651 89.1053C57.9664 89.1053 74.7302 72.3424 74.7302 51.7402C74.7302 32.4071 59.9678 16.4586 41.1259 14.565ZM60.1189 73.4588C59.8301 73.1824 59.377 73.1824 59.0926 73.4677C58.8082 73.7529 58.8081 74.2096 59.0837 74.4984C56.3925 77.0642 53.2526 79.1601 49.7904 80.6527C49.6349 80.2774 49.2083 80.0963 48.8329 80.2473C48.4576 80.3984 48.2765 80.825 48.4231 81.2003C45.202 82.4121 41.7256 83.1019 38.1026 83.1885C38.0893 82.7875 37.7661 82.4687 37.3651 82.4687C36.9641 82.4687 36.6408 82.7875 36.6276 83.1885C32.7767 83.0975 29.098 82.3176 25.7082 80.9672C25.8636 80.5918 25.687 80.1652 25.316 80.0053C24.9451 79.8499 24.5185 80.0186 24.3542 80.3895C21.1242 78.919 18.1831 76.9176 15.6473 74.4984C15.9238 74.2096 15.9238 73.7521 15.6385 73.4677C15.3532 73.1833 14.901 73.1833 14.6122 73.4588C12.042 70.7676 9.94606 67.6277 8.4534 64.1655C8.82878 64.0144 9.00984 63.5834 8.8588 63.2081C8.70777 62.8327 8.28117 62.6516 7.9058 62.7982C6.69401 59.5771 6.0042 56.1007 5.92206 52.4777C6.31863 52.4644 6.63836 52.1412 6.63836 51.7402C6.63836 51.3392 6.31952 51.0159 5.92206 51.0071C6.00862 47.1518 6.78851 43.4731 8.13897 40.0833C8.51434 40.2388 8.94095 40.0656 9.10081 39.6912C9.25626 39.3202 9.08756 38.8936 8.72102 38.7293C10.1916 35.4993 12.1886 32.5582 14.6122 30.0224C14.901 30.2989 15.3541 30.2989 15.6385 30.0136C15.9229 29.7283 15.9229 29.2761 15.6473 28.9873C18.3385 26.4215 21.4784 24.3212 24.9407 22.8285C25.0961 23.2039 25.5227 23.3849 25.8981 23.2339C26.2735 23.0829 26.4545 22.6563 26.3079 22.2809C29.3135 21.1512 32.5356 20.4694 35.8945 20.3139L37.3651 23.3673L38.8357 20.3139C42.4198 20.4782 45.8476 21.2502 49.022 22.5176C48.8665 22.8886 49.0432 23.3152 49.4141 23.475C49.7851 23.6349 50.2117 23.4618 50.376 23.0952C53.6103 24.5658 56.5471 26.5628 59.0828 28.9864C58.8064 29.2752 58.8064 29.7283 59.0917 30.0127C59.377 30.2971 59.8336 30.2971 60.118 30.026C62.6882 32.7127 64.7841 35.8526 66.2768 39.3158C65.9014 39.4712 65.7203 39.8978 65.8714 40.2732C66.0224 40.6486 66.449 40.834 66.8244 40.683C68.0361 43.9086 68.7259 47.3806 68.8081 51.0071C68.4115 51.0159 68.0918 51.3392 68.0918 51.7402C68.0918 52.1412 68.4106 52.4644 68.8081 52.4777C68.7215 56.3286 67.9416 60.0072 66.5912 63.3971C66.2158 63.2416 65.7892 63.4183 65.6293 63.7892C65.4739 64.1602 65.6426 64.5912 66.0091 64.7511C64.5394 67.9863 62.5425 70.9231 60.1189 73.4588Z" fill="#DAFF97"/>
<path d="M32.5615 13.4919C32.6992 13.0088 32.9112 12.5522 33.1868 12.1423C32.0783 11.797 31.1077 11.2194 30.8798 10.2452C30.4921 8.58027 31.0176 6.68751 32.3159 5.05265C33.6823 3.32681 35.6183 2.25722 37.3654 2.25722C39.1124 2.25722 41.0484 3.32681 42.4157 5.05176C43.714 6.68662 44.2395 8.57939 43.8518 10.2443C43.623 11.2194 42.6533 11.797 41.5448 12.1415C41.8168 12.5513 42.0323 13.0079 42.1701 13.491C43.6363 12.9947 44.9258 12.1238 45.2879 10.5755C45.7755 8.47075 45.1501 6.12489 43.5718 4.13232C41.9281 2.06733 39.5522 0.782227 37.3654 0.782227C35.1785 0.782227 32.8026 2.06733 31.1598 4.1332C29.5814 6.12577 28.9561 8.47163 29.4437 10.5764C29.8049 12.1247 31.0944 12.9955 32.5615 13.4919Z" fill="#DAFF97"/>
<path d="M106.425 35.0393H100.574V19.4464H93.1973V14.1866H113.77V19.4464H106.425V35.0393ZM120.256 35.3505C116.708 35.3505 114.716 33.7321 114.716 31.0555C114.716 28.8457 116.241 27.2584 119.789 26.9161L126.17 26.2936V25.9824C126.17 24.3951 125.485 24.1461 123.4 24.1461C121.47 24.1461 120.879 24.5196 120.879 25.8267V25.9512H115.028V25.889C115.028 21.7184 118.513 19.0418 123.836 19.0418C129.313 19.0418 131.959 21.7184 131.959 26.1069V35.0393H126.481V31.7402H126.17C125.578 33.95 123.649 35.3505 120.256 35.3505ZM120.599 30.682C120.599 31.18 121.097 31.2734 121.999 31.2734C124.831 31.2734 125.983 30.931 126.139 29.5304L121.346 30.0907C120.817 30.1529 120.599 30.3397 120.599 30.682ZM139.513 35.0393H132.448L138.299 27.4452V27.1339L132.448 19.3531H139.607L142.812 24.0838H143.124L146.205 19.3531H153.27L147.419 27.0406V27.3518L153.27 35.0393H146.111L142.906 30.433H142.594L139.513 35.0393ZM159.756 17.9214H153.905V14.1866H159.756V17.9214ZM159.756 35.0393H153.905V19.3531H159.756V35.0393ZM178.732 35.0393H172.881V19.4464H165.505V14.1866H186.077V19.4464H178.732V35.0393ZM196.174 35.3505C190.727 35.3505 187.024 32.2693 187.024 27.1962C187.024 22.0919 190.727 19.0418 196.174 19.0418C201.621 19.0418 205.324 22.0919 205.324 27.1962C205.324 32.2693 201.621 35.3505 196.174 35.3505ZM196.174 30.184C198.82 30.184 199.535 29.4682 199.535 27.1962C199.535 24.9242 198.82 24.1772 196.174 24.1772C193.529 24.1772 192.813 24.9242 192.813 27.1962C192.813 29.4682 193.529 30.184 196.174 30.184ZM99.5154 73.0393H93.6642V52.1866H101.601L105.429 60.8389L107.483 66.2233H107.888L109.848 60.8389L113.49 52.1866H121.426V73.0393H115.575V64.4181L115.793 60.9323H115.388L114.206 64.4181L111.093 71.7944H103.997L100.885 64.4181L99.7021 60.9323H99.2975L99.5154 64.4181V73.0393ZM128.372 73.3505C124.823 73.3505 122.832 71.7321 122.832 69.0555C122.832 66.8457 124.357 65.2584 127.905 64.9161L134.285 64.2936V63.9824C134.285 62.3951 133.6 62.1461 131.515 62.1461C129.585 62.1461 128.994 62.5196 128.994 63.8267V63.9512H123.143V63.889C123.143 59.7184 126.629 57.0418 131.951 57.0418C137.428 57.0418 140.074 59.7184 140.074 64.1069V73.0393H134.596V69.7402H134.285C133.694 71.95 131.764 73.3505 128.372 73.3505ZM128.714 68.682C128.714 69.18 129.212 69.2734 130.114 69.2734C132.947 69.2734 134.098 68.931 134.254 67.5304L129.461 68.0907C128.932 68.1529 128.714 68.3397 128.714 68.682ZM147.66 73.0393H141.808V57.3531H147.286V61.4614H147.597C148.033 58.8781 149.651 57.0418 152.764 57.0418C156.219 57.0418 157.588 59.3138 157.588 62.4573V65.5697H151.737V63.7334C151.737 62.4262 151.239 61.9593 149.714 61.9593C148.126 61.9593 147.66 62.4262 147.66 63.6711V73.0393ZM164.68 73.0393H158.829V57.3531H164.307V61.4614H164.618C165.054 58.8781 166.672 57.0418 169.785 57.0418C173.239 57.0418 174.609 59.3138 174.609 62.4573V65.5697H168.757V63.7334C168.757 62.4262 168.259 61.9593 166.734 61.9593C165.147 61.9593 164.68 62.4262 164.68 63.6711V73.0393ZM180.923 73.3505C177.375 73.3505 175.383 71.7321 175.383 69.0555C175.383 66.8457 176.908 65.2584 180.456 64.9161L186.836 64.2936V63.9824C186.836 62.3951 186.152 62.1461 184.066 62.1461C182.137 62.1461 181.545 62.5196 181.545 63.8267V63.9512H175.694V63.889C175.694 59.7184 179.18 57.0418 184.502 57.0418C189.98 57.0418 192.625 59.7184 192.625 64.1069V73.0393H187.148V69.7402H186.836C186.245 71.95 184.315 73.3505 180.923 73.3505ZM181.265 68.682C181.265 69.18 181.763 69.2734 182.666 69.2734C185.498 69.2734 186.65 68.931 186.805 67.5304L182.012 68.0907C181.483 68.1529 181.265 68.3397 181.265 68.682ZM200.211 73.0393H194.36V52.1866H200.211V62.7997H202.981L206.436 57.3531H213.345L207.774 64.9783L213.252 73.0393H206.342L203.043 68.0284H200.211V73.0393ZM222.71 73.3505C217.387 73.3505 213.653 71.0785 213.653 65.1962C213.653 60.0919 217.356 57.0418 222.585 57.0418C228.001 57.0418 231.455 59.7496 231.455 64.7916C231.455 65.3207 231.424 65.7253 231.362 66.2855H219.068C219.161 68.184 220.002 68.7131 222.492 68.7131C224.857 68.7131 225.48 68.3085 225.48 67.3748V67.0325H231.331V67.406C231.331 70.8918 228.001 73.3505 222.71 73.3505ZM222.461 61.5236C220.313 61.5236 219.41 61.9905 219.161 63.3288H225.791C225.573 61.9905 224.639 61.5236 222.461 61.5236ZM241.829 73.3505C236.258 73.3505 232.71 70.2693 232.71 65.1962C232.71 60.0919 236.258 57.0418 241.829 57.0418C247.182 57.0418 250.606 59.7807 250.606 63.9824V64.4803H244.786V64.2314C244.786 62.6129 243.603 62.2706 241.704 62.2706C239.557 62.2706 238.53 62.7374 238.53 65.1962C238.53 67.6238 239.557 68.0907 241.704 68.0907C243.603 68.0907 244.786 67.7794 244.786 66.161V65.8809H250.606V66.41C250.606 70.5805 247.182 73.3505 241.829 73.3505ZM258.02 73.0393H252.169V52.1866H258.02V62.115H258.332C258.83 59.4695 260.573 57.0418 264.587 57.0418C268.758 57.0418 270.75 59.6873 270.75 63.1732V73.0393H264.899V65.1339C264.899 62.9553 264.058 62.2706 261.382 62.2706C258.674 62.2706 258.02 62.9242 258.02 64.9472V73.0393Z" fill="white"/>
</svg>
