<svg xmlns:xlink="http://www.w3.org/1999/xlink" xmlns="http://www.w3.org/2000/svg" width="80" height="80" viewBox="0 0 80 80" fill="none">
<circle cx="40" cy="40" r="40" fill="white"/>
<path d="M25.1875 35.625C25.1875 27.4578 31.8328 20.8125 40 20.8125C48.1672 20.8125 54.8125 27.4578 54.8125 35.625C54.8125 39.5502 52.4199 44.7033 47.5329 50.9716C45.3018 53.8258 42.8858 56.5304 40.3004 59.068C40.2193 59.1447 40.1118 59.1875 40 59.1875C39.8882 59.1875 39.7807 59.1447 39.6996 59.068C37.1142 56.5304 34.6982 53.8258 32.4672 50.9717C27.5801 44.7033 25.1875 39.5502 25.1875 35.625ZM28.5625 35.625C28.5625 41.9324 33.6926 47.0625 40 47.0625C46.3074 47.0625 51.4375 41.9324 51.4375 35.625C51.4375 29.3176 46.3074 24.1875 40 24.1875C33.6926 24.1875 28.5625 29.3176 28.5625 35.625Z" fill="#084D2B" stroke="#084D2B"/>
<path d="M33.153 35.4375V35.4375L33.1459 35.4376C33.0659 35.4387 32.9869 35.4191 32.9167 35.3806C32.8477 35.3428 32.7894 35.288 32.7475 35.2215C32.6971 35.1354 32.6776 35.0347 32.6922 34.936C32.7071 34.836 32.756 34.7443 32.8308 34.6763L39.7058 28.4263C39.7058 28.4263 39.7058 28.4263 39.7058 28.4263C39.7863 28.3531 39.8912 28.3125 40 28.3125C40.1089 28.3125 40.2138 28.3531 40.2943 28.4263L47.1693 34.6763C47.2441 34.7443 47.293 34.836 47.3079 34.936C47.3225 35.0347 47.303 35.1354 47.2526 35.2215C47.2107 35.288 47.1524 35.3428 47.0834 35.3806C47.0132 35.4191 46.9342 35.4387 46.8542 35.4376L46.8542 35.4375H46.8471H45.9375H45.4375V35.9375V41.875C45.4375 41.991 45.3915 42.1023 45.3094 42.1844C45.2274 42.2664 45.1161 42.3125 45 42.3125H42.8125C42.6965 42.3125 42.5852 42.2664 42.5032 42.1844C42.4211 42.1023 42.375 41.991 42.375 41.875V38.4375C42.375 38.0563 42.2236 37.6906 41.954 37.421C41.6844 37.1515 41.3188 37 40.9375 37H39.0625C38.6813 37 38.3157 37.1515 38.0461 37.421C37.7765 37.6906 37.625 38.0563 37.625 38.4375V41.875C37.625 41.991 37.579 42.1023 37.4969 42.1844C37.4149 42.2664 37.3036 42.3125 37.1875 42.3125H35C34.884 42.3125 34.7727 42.2664 34.6907 42.1844C34.6086 42.1023 34.5625 41.991 34.5625 41.875V35.9375V35.4375H34.0625H33.153Z" fill="#084D2B" stroke="#084D2B"/>
</svg>