<svg xmlns:xlink="http://www.w3.org/1999/xlink" xmlns="http://www.w3.org/2000/svg" width="40" height="40" viewBox="0 0 40 40" fill="none">
<circle opacity="0.6" cx="20" cy="20" r="19.5" stroke="#084D2B" stroke-dasharray="2 2"/>
<path d="M19.9866 8C19.9866 8 19.9855 8 19.9851 8C18.148 8 16.8229 9.56515 15.916 11.6681C16.4734 11.7648 17.0413 11.8877 17.6232 12.0485C18.2824 10.6401 19.0975 9.70808 19.9851 9.70808C20.7294 9.70824 21.6271 10.5706 22.3804 12.1069C22.8944 11.9728 23.5688 11.8046 24.0667 11.6911C23.0365 9.42008 21.5913 8.00032 19.9866 8Z" fill="#084D2B"/>
<path d="M25.4499 16.9782C25.327 15.9858 25.1491 15.0465 24.9176 14.1714C25.4879 14.0798 26.0425 14.0166 26.5492 14.0166C27.8148 14.0166 28.6284 14.3151 28.9683 14.9056C29.3407 15.5505 28.9998 16.781 28.0892 18.1423C28.507 18.5485 28.9112 18.9688 29.2898 19.408C30.7405 17.384 31.2511 15.4309 30.453 14.0484C29.7236 12.782 28.2736 12.3023 26.5492 12.3023C24.5156 12.3023 22.1073 12.972 20.0403 13.8018C17.7102 12.8154 15.4706 12.3003 13.6342 12.3003C11.6876 12.3003 10.1923 12.8695 9.51609 14.0402C8.71841 15.42 9.2192 17.3688 10.6597 19.3896C11.0222 18.9565 11.4238 18.5268 11.8553 18.1022C10.9626 16.7536 10.6305 15.5378 11.0005 14.8977C11.32 14.3447 12.3045 14.0146 13.6342 14.0146C14.0889 14.0146 14.5794 14.0627 15.085 14.1353C14.8468 15.0559 14.6694 16.0005 14.5442 16.9123C10.3987 20.0503 8.20139 23.8574 9.5118 26.1284C10.2414 27.3938 11.6912 27.8732 13.4149 27.8732C13.8453 27.8732 14.2961 27.8344 14.7533 27.7793C14.5534 27.2493 14.3729 26.6901 14.216 26.1017C13.9451 26.1258 13.6677 26.159 13.4149 26.159C12.1498 26.159 11.3362 25.8606 10.9966 25.2715C10.5709 24.5339 11.031 23.0529 12.361 21.3553C13.0053 21.9996 13.7274 22.632 14.5302 23.242C15.1971 28.2911 17.38 32 19.9771 32H19.98C21.9977 32 23.3967 30.1117 24.3021 27.6949C25.0174 27.8141 25.6983 27.8752 26.3309 27.8752C28.2775 27.8752 29.7725 27.306 30.4482 26.1355C32.0545 23.3605 28.734 19.5346 25.4499 16.9782ZM13.5071 20.0668C13.7639 19.8085 14.0367 19.5492 14.3308 19.2887C14.3215 19.5339 14.3164 19.7717 14.3163 19.9982C14.3162 20.2881 14.327 20.5722 14.3364 20.857C14.0438 20.5961 13.7705 20.3334 13.5071 20.0668ZM25.6244 19.3537C25.8969 19.5964 26.1633 19.8478 26.4248 20.1067C26.1688 20.3638 25.9041 20.6175 25.621 20.8692C25.6346 20.5719 25.6484 20.2733 25.6485 20.0022C25.6486 19.7814 25.63 19.5714 25.6244 19.3537ZM23.2621 14.5211C23.3556 14.8681 23.4423 15.2288 23.5192 15.6079C23.2783 15.4548 23.0434 15.3118 22.8176 15.1813C22.6076 15.06 22.3974 14.9532 22.1872 14.8394C22.5448 14.7232 22.9043 14.6169 23.2621 14.5211ZM16.7747 14.483C17.1271 14.577 17.4843 14.6844 17.8463 14.8051C17.6054 14.9308 17.3638 15.0568 17.1508 15.1797C16.9311 15.3064 16.7217 15.4395 16.5091 15.5705C16.5878 15.1968 16.6789 14.8392 16.7747 14.483ZM16.4952 24.5845C16.7144 24.7201 16.9213 24.8624 17.1479 24.9934C17.353 25.112 17.5584 25.2162 17.7638 25.3276C17.4244 25.4369 17.0887 25.5317 16.7491 25.6228C16.6559 25.2866 16.5712 24.9408 16.4952 24.5845ZM19.9771 30.2921C19.1978 30.2921 18.2552 29.3201 17.5172 27.7554C17.4423 27.5967 17.3745 27.4245 17.3048 27.2559C18.2027 27.0077 19.0913 26.7074 19.9243 26.3732C20.8435 26.7625 21.7453 27.0744 22.6169 27.3127C21.9171 29.0764 20.9945 30.2921 19.9771 30.2921ZM28.9637 25.2786C28.6447 25.8312 27.6605 26.1611 26.331 26.1611C23.9912 26.1611 20.879 25.1697 18.0056 23.5091C17.3524 23.1317 16.7357 22.7188 16.1393 22.2931C16.065 21.5432 16.024 20.775 16.0243 19.999C16.0246 19.2957 16.0785 18.5718 16.1549 17.8478C16.7268 17.4448 17.3429 17.0481 18.0074 16.6647C18.5972 16.3245 19.2817 15.9843 20.0143 15.6651C20.6671 15.965 21.3195 16.2958 21.9598 16.6657C22.5031 16.9796 23.1576 17.4071 23.8484 17.9141C23.9067 18.5783 23.9407 19.2729 23.9406 20.0016C23.9403 20.7566 23.8895 21.5364 23.8014 22.3132C23.2116 22.7324 22.602 23.1389 21.957 23.5108C21.6564 23.6842 21.3294 23.8574 20.9864 24.0282C21.72 24.3361 22.4445 24.5921 23.148 24.7922C23.2414 24.7365 23.3249 24.6756 23.417 24.619C23.3999 24.6971 23.3869 24.7785 23.3691 24.8559C23.9474 25.0118 24.5042 25.1246 25.0373 25.1987C25.1832 24.5532 25.2922 23.9081 25.3847 23.272C26.1987 22.6568 26.9347 22.0193 27.5873 21.3688C28.3092 22.2551 29.6296 24.128 28.9637 25.2786Z" fill="#084D2B"/>
<path d="M19.9799 21.7137C20.9267 21.7137 21.6942 20.9462 21.6942 19.9994C21.6942 19.0527 20.9267 18.2852 19.9799 18.2852C19.0331 18.2852 18.2656 19.0527 18.2656 19.9994C18.2656 20.9462 19.0331 21.7137 19.9799 21.7137Z" fill="#084D2B"/>
</svg>