<svg xmlns:xlink="http://www.w3.org/1999/xlink" xmlns="http://www.w3.org/2000/svg" width="227" height="318" viewBox="0 0 227 318" fill="none">
<path d="M138.935 57.3111C135.357 54.6611 131.767 52.0276 128.167 49.4064C129.826 47.1289 131.484 44.8542 133.142 42.5782C134.142 41.2025 136.093 40.9479 137.413 42.0187C139.301 43.5494 141.163 45.1097 143 46.7005C144.145 47.6917 144.371 49.3831 143.515 50.632C141.99 52.8586 140.462 55.0858 138.935 57.3111Z" stroke="#131313" stroke-opacity="0.2" stroke-width="2.48267" stroke-miterlimit="10" stroke-linecap="round"/>
<path d="M105.032 106.012C101.037 103.063 97.044 100.115 93.0476 97.1676C95.34 94.0761 97.6271 90.9833 99.9136 87.8904C103.883 90.7117 107.854 93.5307 111.826 96.352C109.567 99.5747 107.302 102.796 105.032 106.012Z" stroke="#131313" stroke-opacity="0.2" stroke-width="2.48267" stroke-miterlimit="10" stroke-linecap="round"/>
<path d="M-10.1387 262.645C-12.0981 265.201 -15.8297 265.735 -18.4032 263.802C-20.1126 262.515 -21.7844 261.18 -23.4154 259.795C-25.8362 257.741 -26.1881 254.138 -24.2399 251.633C7.0451 211.429 37.9418 170.948 68.4392 130.212C72.7062 133.289 76.9628 136.383 81.2064 139.497C51.4432 180.966 20.9828 222.031 -10.1387 262.645Z" stroke="#131313" stroke-opacity="0.2" stroke-width="2.48267" stroke-miterlimit="10" stroke-linecap="round"/>
<path d="M200.431 134.621C189.803 134.605 179.181 134.586 168.555 134.571C166.653 134.567 164.799 133.976 163.248 132.873C146.106 120.699 128.967 108.524 111.827 96.3515C107.854 93.5307 103.883 90.7112 99.9143 87.8899C82.1637 75.2837 64.4165 62.6776 46.6682 50.0733C44.2633 48.3623 43.5776 45.0923 45.0847 42.5549C51.5861 31.6128 59.8711 21.7309 69.508 13.4191C71.4506 11.7446 74.2701 11.5814 76.3917 13.0188C93.857 24.8516 111.12 36.9809 128.167 49.4059C131.767 52.0271 135.358 54.6607 138.935 57.3105C155.271 69.3902 171.407 81.7413 187.337 94.3549C188.609 95.3597 189.591 96.6891 190.184 98.1987C194.46 109.079 198.737 119.958 203.013 130.838C203.728 132.658 202.384 134.625 200.431 134.621Z" stroke="#131313" stroke-opacity="0.2" stroke-width="2.48267" stroke-miterlimit="10" stroke-linecap="round"/>
<path d="M133.516 179.39C116.326 165.774 98.8843 152.473 81.2065 139.497C76.9629 136.383 72.707 133.288 68.4392 130.212C56.5159 121.622 44.487 113.175 32.3589 104.878C30.7933 103.807 29.5964 102.279 28.9345 100.502C25.0223 90.0136 20.7416 79.6624 16.0991 69.477C15.2014 67.5017 16.8178 65.3076 18.9698 65.5811L54.39 70.0899C55.9456 70.2877 57.4254 70.8798 58.6885 71.8107C70.141 80.2616 81.5944 88.7168 93.0474 97.1679C97.0439 100.115 101.036 103.063 105.031 106.013C120.762 117.619 136.489 129.226 152.219 140.835C153.617 141.866 154.255 143.631 153.857 145.32C152.927 149.28 151.755 153.183 150.353 156.998C147.621 164.418 144.017 171.489 139.895 178.24C138.541 180.459 135.554 181.004 133.516 179.39Z" stroke="#131313" stroke-opacity="0.2" stroke-width="2.48267" stroke-miterlimit="10" stroke-linecap="round"/>
<path d="M75.7533 18.8146C90.825 28.2654 105.32 38.6348 119.131 49.8469" stroke="#131313" stroke-opacity="0.2" stroke-width="2.48267" stroke-miterlimit="10" stroke-linecap="round"/>
<path d="M119.277 95.6414C134.89 106.019 150.004 117.149 164.55 128.977" stroke="#131313" stroke-opacity="0.2" stroke-width="2.48267" stroke-miterlimit="10" stroke-linecap="round"/>
<path d="M158.05 117.843C162.581 121.605 167.113 125.368 171.644 129.131" stroke="#131313" stroke-opacity="0.2" stroke-width="2.48267" stroke-miterlimit="10" stroke-linecap="round"/>
<path d="M58.3245 77.2144C69.8702 85.0505 81.0938 93.3611 91.9573 102.118" stroke="#131313" stroke-opacity="0.2" stroke-width="2.48267" stroke-miterlimit="10" stroke-linecap="round"/>
<path d="M78.7346 97.8792C85.6486 102.773 92.5625 107.668 99.4767 112.562" stroke="#131313" stroke-opacity="0.2" stroke-width="2.48267" stroke-miterlimit="10" stroke-linecap="round"/>
<path d="M123.155 125.554C130.253 130.574 137.351 135.593 144.449 140.612" stroke="#131313" stroke-opacity="0.2" stroke-width="2.48267" stroke-miterlimit="10" stroke-linecap="round"/>
<path d="M108.445 149.582C117.48 156.295 126.514 163.008 135.549 169.721" stroke="#131313" stroke-opacity="0.2" stroke-width="2.48267" stroke-miterlimit="10" stroke-linecap="round"/>
<path d="M124.969 167.272C129.092 170.393 133.215 173.513 137.339 176.634" stroke="#131313" stroke-opacity="0.2" stroke-width="2.48267" stroke-miterlimit="10" stroke-linecap="round"/>
<path d="M100.387 137.974C106.244 142.286 112.101 146.598 117.957 150.911" stroke="#131313" stroke-opacity="0.2" stroke-width="2.48267" stroke-miterlimit="10" stroke-linecap="round"/>
<path d="M6.67189 219.381C-2.54685 231.198 -11.7653 243.016 -20.984 254.833" stroke="#131313" stroke-opacity="0.2" stroke-width="2.48267" stroke-miterlimit="10" stroke-linecap="round"/>
<path d="M75.3846 140.178C68.0394 151.038 60.1117 161.8 52.1369 171.792" stroke="#131313" stroke-opacity="0.2" stroke-width="2.48267" stroke-miterlimit="10" stroke-linecap="round"/>
<path d="M56.6533 160.128C51.7716 166.411 46.8905 172.693 42.0093 178.975" stroke="#131313" stroke-opacity="0.2" stroke-width="2.48267" stroke-miterlimit="10" stroke-linecap="round"/>
<path d="M105.214 45.001C111.938 50.5121 118.661 56.0231 125.384 61.534" stroke="#131313" stroke-opacity="0.2" stroke-width="2.48267" stroke-miterlimit="10" stroke-linecap="round"/>
</svg>