<svg width="800" height="800" viewBox="0 0 800 800" fill="none" xmlns="http://www.w3.org/2000/svg">
<path fill-rule="evenodd" clip-rule="evenodd" d="M400 775C593.3 775 750 618.3 750 425C750 231.7 593.3 75 400 75C206.7 75 50 231.7 50 425C50 487.75 66.525 546.675 95.45 597.625L50 775L232.875 732.6C284.153 760.509 341.62 775.088 400 775ZM400 721.15C563.575 721.15 696.15 588.575 696.15 425C696.15 261.45 563.575 128.85 400 128.85C236.45 128.85 103.85 261.45 103.85 425C103.85 488.15 123.6 546.7 157.3 594.75L130.75 694.25L231.975 668.925C281.357 703.024 339.964 721.252 399.975 721.175" fill="#BFC8D0"/>
<path d="M700 400C700 565.675 565.675 700 400 700C336.8 700 278.175 680.45 229.825 647.1L127.25 672.725L154.125 571.975C118.804 521.592 99.9014 461.531 100 400C100 234.325 234.325 100 400 100C565.675 100 700 234.325 700 400Z" fill="url(#paint0_linear_142_12)"/>
<path fill-rule="evenodd" clip-rule="evenodd" d="M400 750C593.3 750 750 593.3 750 400C750 206.7 593.3 50 400 50C206.7 50 50 206.7 50 400C50 462.75 66.525 521.675 95.45 572.625L50 750L232.875 707.6C284.153 735.509 341.62 750.088 400 750ZM400 696.15C563.575 696.15 696.15 563.575 696.15 400C696.15 236.45 563.575 103.85 400 103.85C236.45 103.85 103.85 236.45 103.85 400C103.85 463.15 123.6 521.7 157.3 569.75L130.75 669.25L231.975 643.925C281.357 678.024 339.964 696.252 399.975 696.175" fill="#DAFF97"/>
<path d="M312.5 237.5C304.175 220.775 291.4 222.25 278.5 222.25C255.475 222.25 219.525 249.875 219.525 301.25C219.525 343.35 238.075 389.45 300.6 458.4C360.95 524.95 440.225 559.375 506.05 558.2C571.875 557.025 585.425 500.375 585.425 481.25C585.425 472.775 580.175 468.55 576.525 467.4L503.325 432.8C493.9 429.05 489 434.15 485.95 436.925C477.4 445.05 460.475 469.025 454.7 474.425C448.925 479.825 440.25 477.075 436.675 475.025C423.425 469.725 387.575 453.775 359 426.075C323.625 391.8 321.55 380 314.9 369.5C309.575 361.1 313.475 355.95 315.425 353.7C323.05 344.925 333.575 331.35 338.275 324.6C342.975 317.85 339.275 307.625 337.025 301.25C327.35 273.825 319.15 250.875 312.5 237.5Z" fill="#DAFF97"/>
<defs>
<linearGradient id="paint0_linear_142_12" x1="662.5" y1="175" x2="100" y2="700" gradientUnits="userSpaceOnUse">
<stop stop-color="#090909"/>
</linearGradient>
</defs>
</svg>
